<svg xmlns="http://www.w3.org/2000/svg" version="1.1" xmlns:xlink="http://www.w3.org/1999/xlink" xmlns:svgjs="http://svgjs.dev/svgjs" width="1440" height="560" preserveAspectRatio="none" viewBox="0 0 1440 560"><g mask="url(&quot;#SvgjsMask1005&quot;)" fill="none"><rect width="1440" height="560" x="0" y="0" fill="#0e2a47"></rect><path d="M1324.21 80.66a54.53 54.53 0 1 0-101.54-39.79z" stroke="rgba(160, 12, 12, 1)"></path><path d="M981.67 536.87a33.73 33.73 0 1 0 5.79-67.21z" stroke="rgba(160, 12, 12, 1)"></path><path d="M1391.4 147.52 a31.19 31.19 0 1 0 62.38 0 a31.19 31.19 0 1 0 -62.38 0z" stroke="rgba(160, 12, 12, 1)"></path><path d="M642.31 258.52L651.91 258.52L651.91 263.19L642.31 263.19z" stroke="rgba(160, 12, 12, 1)"></path><path d="M347.51 518.66 a11.68 11.68 0 1 0 23.36 0 a11.68 11.68 0 1 0 -23.36 0z" stroke="rgba(231, 222, 53, 1)"></path><path d="M94.88 507.85L110.19 507.85L110.19 554.87L94.88 554.87z" fill="rgba(231, 222, 53, 1)"></path><path d="M1213.52 355.36a50.51 50.51 0 1 0-83.36 57.07z" stroke="rgba(231, 222, 53, 1)"></path><path d="M8.69 153.32a11.16 11.16 0 1 0 22.22 2.18z" stroke="rgba(160, 12, 12, 1)"></path><path d="M1041.68 200.12L1087.56 200.12L1087.56 246L1041.68 246z" stroke="rgba(255, 255, 252, 1)"></path><path d="M162.49 101.88L172.44 101.88L172.44 103.3L162.49 103.3z" stroke="rgba(231, 222, 53, 1)"></path><path d="M1364.7 119.27 a23.17 23.17 0 1 0 46.34 0 a23.17 23.17 0 1 0 -46.34 0z" stroke="rgba(160, 12, 12, 1)"></path><path d="M1041.92 227.49a18.17 18.17 0 1 0-1.67-36.3z" stroke="rgba(231, 222, 53, 1)"></path><path d="M1213.87 50.43L1251.99 50.43L1251.99 88.55L1213.87 88.55z" fill="rgba(231, 222, 53, 1)"></path><path d="M149.29 219.8L165.13 219.8L165.13 250.5L149.29 250.5z" fill="rgba(231, 222, 53, 1)"></path><path d="M524.52 370.59L554.56 370.59L554.56 412.58L524.52 412.58z" stroke="rgba(231, 222, 53, 1)"></path><path d="M1331.82 67.38 a21.5 21.5 0 1 0 43 0 a21.5 21.5 0 1 0 -43 0z" stroke="rgba(160, 12, 12, 1)"></path><path d="M1378.33 429.18L1406.16 429.18L1406.16 457.01L1378.33 457.01z" fill="rgba(255, 255, 252, 1)"></path><path d="M722.1 169.85a31.17 31.17 0 1 0 58.08-22.64z" fill="rgba(231, 222, 53, 1)"></path><path d="M198.13 196.34L213.17 196.34L213.17 211.38L198.13 211.38z" stroke="rgba(160, 12, 12, 1)"></path><path d="M46.96 445.76L101.52 445.76L101.52 500.32L46.96 500.32z" stroke="rgba(160, 12, 12, 1)"></path><path d="M561.78 388.46L591.5 388.46L591.5 399.32L561.78 399.32z" fill="rgba(160, 12, 12, 1)"></path><path d="M159.4 387.44L198.2 387.44L198.2 413.21L159.4 413.21z" stroke="rgba(231, 222, 53, 1)"></path><path d="M33.36-0.05a28.75 28.75 0 1 0-14.75 55.58z" fill="rgba(160, 12, 12, 1)"></path><path d="M950.13 410.84L972.06 410.84L972.06 442.91L950.13 442.91z" stroke="rgba(160, 12, 12, 1)"></path><path d="M196.27 528.84L247.93 528.84L247.93 562.9L196.27 562.9z" fill="rgba(231, 222, 53, 1)"></path><path d="M336.05 125.01 a14.55 14.55 0 1 0 29.1 0 a14.55 14.55 0 1 0 -29.1 0z" stroke="rgba(160, 12, 12, 1)"></path><path d="M249.93 53.97L256.59 53.97L256.59 104.23L249.93 104.23z" stroke="rgba(255, 255, 252, 1)"></path><path d="M522.74 404.53L556.46 404.53L556.46 451.17L522.74 451.17z" fill="rgba(255, 255, 252, 1)"></path><path d="M1394.74 372.1L1406.65 372.1L1406.65 391.07L1394.74 391.07z" fill="rgba(231, 222, 53, 1)"></path><path d="M631.66 432.89L674.58 432.89L674.58 475.2L631.66 475.2z" fill="rgba(160, 12, 12, 1)"></path><path d="M575.34 64.5L604.62 64.5L604.62 82.35L575.34 82.35z" stroke="rgba(255, 255, 252, 1)"></path><path d="M1354.15 514.53L1383.4 514.53L1383.4 554.22L1354.15 554.22z" fill="rgba(231, 222, 53, 1)"></path><path d="M523.76 51.92L538.99 51.92L538.99 105.36L523.76 105.36z" fill="rgba(160, 12, 12, 1)"></path></g><defs><mask id="SvgjsMask1005"><rect width="1440" height="560" fill="#ffffff"></rect></mask></defs></svg>