<svg xmlns="http://www.w3.org/2000/svg" version="1.1" xmlns:xlink="http://www.w3.org/1999/xlink" xmlns:svgjs="http://svgjs.dev/svgjs" width="1440" height="560" preserveAspectRatio="none" viewBox="0 0 1440 560"><g mask="url(&quot;#SvgjsMask1076&quot;)" fill="none"><rect width="1440" height="560" x="0" y="0" fill="#0e2a47"></rect><path d="M33.38 441.92L78.41 467.92L78.41 519.92L33.38 545.92L-11.65 519.92L-11.65 467.92zM78.41 519.92L123.45 545.92L123.45 597.92L78.41 623.92L33.38 597.92L33.38 545.92zM168.48 51.92L213.52 77.92L213.52 129.92L168.48 155.92L123.45 129.92L123.45 77.92zM168.48 207.92L213.52 233.92L213.52 285.92L168.48 311.92L123.45 285.92L123.45 233.92zM168.48 519.92L213.52 545.92L213.52 597.92L168.48 623.92L123.45 597.92L123.45 545.92zM213.52 -26.08L258.55 -0.08L258.55 51.92L213.52 77.92L168.48 51.92L168.48 -0.08zM258.55 519.92L303.59 545.92L303.59 597.92L258.55 623.92L213.52 597.92L213.52 545.92zM303.59 285.92L348.62 311.92L348.62 363.92L303.59 389.92L258.55 363.92L258.55 311.92zM348.62 363.92L393.66 389.92L393.66 441.92L348.62 467.92L303.59 441.92L303.59 389.92zM348.62 519.92L393.66 545.92L393.66 597.92L348.62 623.92L303.59 597.92L303.59 545.92zM393.66 -26.08L438.69 -0.08L438.69 51.92L393.66 77.92L348.62 51.92L348.62 -0.08zM393.66 129.92L438.69 155.92L438.69 207.92L393.66 233.92L348.62 207.92L348.62 155.92zM483.73 285.92L528.76 311.92L528.76 363.92L483.73 389.92L438.69 363.92L438.69 311.92zM528.76 363.92L573.8 389.92L573.8 441.92L528.76 467.92L483.73 441.92L483.73 389.92zM573.8 -26.08L618.83 -0.08L618.83 51.92L573.8 77.92L528.76 51.92L528.76 -0.08zM573.8 129.92L618.83 155.92L618.83 207.92L573.8 233.92L528.76 207.92L528.76 155.92zM573.8 285.92L618.83 311.92L618.83 363.92L573.8 389.92L528.76 363.92L528.76 311.92zM573.8 441.92L618.83 467.92L618.83 519.92L573.8 545.92L528.76 519.92L528.76 467.92zM663.86 129.92L708.9 155.92L708.9 207.92L663.86 233.92L618.83 207.92L618.83 155.92zM708.9 207.92L753.93 233.92L753.93 285.92L708.9 311.92L663.86 285.92L663.86 233.92zM663.86 285.92L708.9 311.92L708.9 363.92L663.86 389.92L618.83 363.92L618.83 311.92zM663.86 441.92L708.9 467.92L708.9 519.92L663.86 545.92L618.83 519.92L618.83 467.92zM708.9 519.92L753.93 545.92L753.93 597.92L708.9 623.92L663.86 597.92L663.86 545.92zM798.97 207.92L844 233.92L844 285.92L798.97 311.92L753.93 285.92L753.93 233.92zM889.04 207.92L934.07 233.92L934.07 285.92L889.04 311.92L844 285.92L844 233.92zM889.04 363.92L934.07 389.92L934.07 441.92L889.04 467.92L844 441.92L844 389.92zM1159.24 363.92L1204.28 389.92L1204.28 441.92L1159.24 467.92L1114.21 441.92L1114.21 389.92zM1114.21 441.92L1159.24 467.92L1159.24 519.92L1114.21 545.92L1069.18 519.92L1069.18 467.92zM1204.28 -26.08L1249.31 -0.08L1249.31 51.92L1204.28 77.92L1159.25 51.92L1159.25 -0.08zM1249.31 363.92L1294.35 389.92L1294.35 441.92L1249.31 467.92L1204.28 441.92L1204.28 389.92zM1339.38 51.92L1384.42 77.92L1384.42 129.92L1339.38 155.92L1294.35 129.92L1294.35 77.92zM1429.45 51.92L1474.49 77.92L1474.49 129.92L1429.45 155.92L1384.42 129.92L1384.42 77.92zM1429.45 519.92L1474.49 545.92L1474.49 597.92L1429.45 623.92L1384.42 597.92L1384.42 545.92z" stroke="rgba(19, 63, 106, 1)" stroke-width="2"></path><path d="M28.18 441.92 a5.2 5.2 0 1 0 10.4 0 a5.2 5.2 0 1 0 -10.4 0zM73.21 467.92 a5.2 5.2 0 1 0 10.4 0 a5.2 5.2 0 1 0 -10.4 0zM73.21 519.92 a5.2 5.2 0 1 0 10.4 0 a5.2 5.2 0 1 0 -10.4 0zM28.18 545.92 a5.2 5.2 0 1 0 10.4 0 a5.2 5.2 0 1 0 -10.4 0zM-16.85 519.92 a5.2 5.2 0 1 0 10.4 0 a5.2 5.2 0 1 0 -10.4 0zM-16.85 467.92 a5.2 5.2 0 1 0 10.4 0 a5.2 5.2 0 1 0 -10.4 0zM118.25 545.92 a5.2 5.2 0 1 0 10.4 0 a5.2 5.2 0 1 0 -10.4 0zM118.25 597.92 a5.2 5.2 0 1 0 10.4 0 a5.2 5.2 0 1 0 -10.4 0zM73.21 623.92 a5.2 5.2 0 1 0 10.4 0 a5.2 5.2 0 1 0 -10.4 0zM28.18 597.92 a5.2 5.2 0 1 0 10.4 0 a5.2 5.2 0 1 0 -10.4 0zM163.28 51.92 a5.2 5.2 0 1 0 10.4 0 a5.2 5.2 0 1 0 -10.4 0zM208.32 77.92 a5.2 5.2 0 1 0 10.4 0 a5.2 5.2 0 1 0 -10.4 0zM208.32 129.92 a5.2 5.2 0 1 0 10.4 0 a5.2 5.2 0 1 0 -10.4 0zM163.28 155.92 a5.2 5.2 0 1 0 10.4 0 a5.2 5.2 0 1 0 -10.4 0zM118.25 129.92 a5.2 5.2 0 1 0 10.4 0 a5.2 5.2 0 1 0 -10.4 0zM118.25 77.92 a5.2 5.2 0 1 0 10.4 0 a5.2 5.2 0 1 0 -10.4 0zM163.28 207.92 a5.2 5.2 0 1 0 10.4 0 a5.2 5.2 0 1 0 -10.4 0zM208.32 233.92 a5.2 5.2 0 1 0 10.4 0 a5.2 5.2 0 1 0 -10.4 0zM208.32 285.92 a5.2 5.2 0 1 0 10.4 0 a5.2 5.2 0 1 0 -10.4 0zM163.28 311.92 a5.2 5.2 0 1 0 10.4 0 a5.2 5.2 0 1 0 -10.4 0zM118.25 285.92 a5.2 5.2 0 1 0 10.4 0 a5.2 5.2 0 1 0 -10.4 0zM118.25 233.92 a5.2 5.2 0 1 0 10.4 0 a5.2 5.2 0 1 0 -10.4 0zM163.28 519.92 a5.2 5.2 0 1 0 10.4 0 a5.2 5.2 0 1 0 -10.4 0zM208.32 545.92 a5.2 5.2 0 1 0 10.4 0 a5.2 5.2 0 1 0 -10.4 0zM208.32 597.92 a5.2 5.2 0 1 0 10.4 0 a5.2 5.2 0 1 0 -10.4 0zM163.28 623.92 a5.2 5.2 0 1 0 10.4 0 a5.2 5.2 0 1 0 -10.4 0zM208.32 -26.08 a5.2 5.2 0 1 0 10.4 0 a5.2 5.2 0 1 0 -10.4 0zM253.35 -0.08 a5.2 5.2 0 1 0 10.4 0 a5.2 5.2 0 1 0 -10.4 0zM253.35 51.92 a5.2 5.2 0 1 0 10.4 0 a5.2 5.2 0 1 0 -10.4 0zM163.28 -0.08 a5.2 5.2 0 1 0 10.4 0 a5.2 5.2 0 1 0 -10.4 0zM253.35 519.92 a5.2 5.2 0 1 0 10.4 0 a5.2 5.2 0 1 0 -10.4 0zM298.39 545.92 a5.2 5.2 0 1 0 10.4 0 a5.2 5.2 0 1 0 -10.4 0zM298.39 597.92 a5.2 5.2 0 1 0 10.4 0 a5.2 5.2 0 1 0 -10.4 0zM253.35 623.92 a5.2 5.2 0 1 0 10.4 0 a5.2 5.2 0 1 0 -10.4 0zM298.39 285.92 a5.2 5.2 0 1 0 10.4 0 a5.2 5.2 0 1 0 -10.4 0zM343.42 311.92 a5.2 5.2 0 1 0 10.4 0 a5.2 5.2 0 1 0 -10.4 0zM343.42 363.92 a5.2 5.2 0 1 0 10.4 0 a5.2 5.2 0 1 0 -10.4 0zM298.39 389.92 a5.2 5.2 0 1 0 10.4 0 a5.2 5.2 0 1 0 -10.4 0zM253.35 363.92 a5.2 5.2 0 1 0 10.4 0 a5.2 5.2 0 1 0 -10.4 0zM253.35 311.92 a5.2 5.2 0 1 0 10.4 0 a5.2 5.2 0 1 0 -10.4 0zM388.46 389.92 a5.2 5.2 0 1 0 10.4 0 a5.2 5.2 0 1 0 -10.4 0zM388.46 441.92 a5.2 5.2 0 1 0 10.4 0 a5.2 5.2 0 1 0 -10.4 0zM343.42 467.92 a5.2 5.2 0 1 0 10.4 0 a5.2 5.2 0 1 0 -10.4 0zM298.39 441.92 a5.2 5.2 0 1 0 10.4 0 a5.2 5.2 0 1 0 -10.4 0zM343.42 519.92 a5.2 5.2 0 1 0 10.4 0 a5.2 5.2 0 1 0 -10.4 0zM388.46 545.92 a5.2 5.2 0 1 0 10.4 0 a5.2 5.2 0 1 0 -10.4 0zM388.46 597.92 a5.2 5.2 0 1 0 10.4 0 a5.2 5.2 0 1 0 -10.4 0zM343.42 623.92 a5.2 5.2 0 1 0 10.4 0 a5.2 5.2 0 1 0 -10.4 0zM388.46 -26.08 a5.2 5.2 0 1 0 10.4 0 a5.2 5.2 0 1 0 -10.4 0zM433.49 -0.08 a5.2 5.2 0 1 0 10.4 0 a5.2 5.2 0 1 0 -10.4 0zM433.49 51.92 a5.2 5.2 0 1 0 10.4 0 a5.2 5.2 0 1 0 -10.4 0zM388.46 77.92 a5.2 5.2 0 1 0 10.4 0 a5.2 5.2 0 1 0 -10.4 0zM343.42 51.92 a5.2 5.2 0 1 0 10.4 0 a5.2 5.2 0 1 0 -10.4 0zM343.42 -0.08 a5.2 5.2 0 1 0 10.4 0 a5.2 5.2 0 1 0 -10.4 0zM388.46 129.92 a5.2 5.2 0 1 0 10.4 0 a5.2 5.2 0 1 0 -10.4 0zM433.49 155.92 a5.2 5.2 0 1 0 10.4 0 a5.2 5.2 0 1 0 -10.4 0zM433.49 207.92 a5.2 5.2 0 1 0 10.4 0 a5.2 5.2 0 1 0 -10.4 0zM388.46 233.92 a5.2 5.2 0 1 0 10.4 0 a5.2 5.2 0 1 0 -10.4 0zM343.42 207.92 a5.2 5.2 0 1 0 10.4 0 a5.2 5.2 0 1 0 -10.4 0zM343.42 155.92 a5.2 5.2 0 1 0 10.4 0 a5.2 5.2 0 1 0 -10.4 0zM478.53 285.92 a5.2 5.2 0 1 0 10.4 0 a5.2 5.2 0 1 0 -10.4 0zM523.56 311.92 a5.2 5.2 0 1 0 10.4 0 a5.2 5.2 0 1 0 -10.4 0zM523.56 363.92 a5.2 5.2 0 1 0 10.4 0 a5.2 5.2 0 1 0 -10.4 0zM478.53 389.92 a5.2 5.2 0 1 0 10.4 0 a5.2 5.2 0 1 0 -10.4 0zM433.49 363.92 a5.2 5.2 0 1 0 10.4 0 a5.2 5.2 0 1 0 -10.4 0zM433.49 311.92 a5.2 5.2 0 1 0 10.4 0 a5.2 5.2 0 1 0 -10.4 0zM568.6 389.92 a5.2 5.2 0 1 0 10.4 0 a5.2 5.2 0 1 0 -10.4 0zM568.6 441.92 a5.2 5.2 0 1 0 10.4 0 a5.2 5.2 0 1 0 -10.4 0zM523.56 467.92 a5.2 5.2 0 1 0 10.4 0 a5.2 5.2 0 1 0 -10.4 0zM478.53 441.92 a5.2 5.2 0 1 0 10.4 0 a5.2 5.2 0 1 0 -10.4 0zM568.6 -26.08 a5.2 5.2 0 1 0 10.4 0 a5.2 5.2 0 1 0 -10.4 0zM613.63 -0.08 a5.2 5.2 0 1 0 10.4 0 a5.2 5.2 0 1 0 -10.4 0zM613.63 51.92 a5.2 5.2 0 1 0 10.4 0 a5.2 5.2 0 1 0 -10.4 0zM568.6 77.92 a5.2 5.2 0 1 0 10.4 0 a5.2 5.2 0 1 0 -10.4 0zM523.56 51.92 a5.2 5.2 0 1 0 10.4 0 a5.2 5.2 0 1 0 -10.4 0zM523.56 -0.08 a5.2 5.2 0 1 0 10.4 0 a5.2 5.2 0 1 0 -10.4 0zM568.6 129.92 a5.2 5.2 0 1 0 10.4 0 a5.2 5.2 0 1 0 -10.4 0zM613.63 155.92 a5.2 5.2 0 1 0 10.4 0 a5.2 5.2 0 1 0 -10.4 0zM613.63 207.92 a5.2 5.2 0 1 0 10.4 0 a5.2 5.2 0 1 0 -10.4 0zM568.6 233.92 a5.2 5.2 0 1 0 10.4 0 a5.2 5.2 0 1 0 -10.4 0zM523.56 207.92 a5.2 5.2 0 1 0 10.4 0 a5.2 5.2 0 1 0 -10.4 0zM523.56 155.92 a5.2 5.2 0 1 0 10.4 0 a5.2 5.2 0 1 0 -10.4 0zM568.6 285.92 a5.2 5.2 0 1 0 10.4 0 a5.2 5.2 0 1 0 -10.4 0zM613.63 311.92 a5.2 5.2 0 1 0 10.4 0 a5.2 5.2 0 1 0 -10.4 0zM613.63 363.92 a5.2 5.2 0 1 0 10.4 0 a5.2 5.2 0 1 0 -10.4 0zM613.63 467.92 a5.2 5.2 0 1 0 10.4 0 a5.2 5.2 0 1 0 -10.4 0zM613.63 519.92 a5.2 5.2 0 1 0 10.4 0 a5.2 5.2 0 1 0 -10.4 0zM568.6 545.92 a5.2 5.2 0 1 0 10.4 0 a5.2 5.2 0 1 0 -10.4 0zM523.56 519.92 a5.2 5.2 0 1 0 10.4 0 a5.2 5.2 0 1 0 -10.4 0zM658.66 129.92 a5.2 5.2 0 1 0 10.4 0 a5.2 5.2 0 1 0 -10.4 0zM703.7 155.92 a5.2 5.2 0 1 0 10.4 0 a5.2 5.2 0 1 0 -10.4 0zM703.7 207.92 a5.2 5.2 0 1 0 10.4 0 a5.2 5.2 0 1 0 -10.4 0zM658.66 233.92 a5.2 5.2 0 1 0 10.4 0 a5.2 5.2 0 1 0 -10.4 0zM748.73 233.92 a5.2 5.2 0 1 0 10.4 0 a5.2 5.2 0 1 0 -10.4 0zM748.73 285.92 a5.2 5.2 0 1 0 10.4 0 a5.2 5.2 0 1 0 -10.4 0zM703.7 311.92 a5.2 5.2 0 1 0 10.4 0 a5.2 5.2 0 1 0 -10.4 0zM658.66 285.92 a5.2 5.2 0 1 0 10.4 0 a5.2 5.2 0 1 0 -10.4 0zM703.7 363.92 a5.2 5.2 0 1 0 10.4 0 a5.2 5.2 0 1 0 -10.4 0zM658.66 389.92 a5.2 5.2 0 1 0 10.4 0 a5.2 5.2 0 1 0 -10.4 0zM658.66 441.92 a5.2 5.2 0 1 0 10.4 0 a5.2 5.2 0 1 0 -10.4 0zM703.7 467.92 a5.2 5.2 0 1 0 10.4 0 a5.2 5.2 0 1 0 -10.4 0zM703.7 519.92 a5.2 5.2 0 1 0 10.4 0 a5.2 5.2 0 1 0 -10.4 0zM658.66 545.92 a5.2 5.2 0 1 0 10.4 0 a5.2 5.2 0 1 0 -10.4 0zM748.73 545.92 a5.2 5.2 0 1 0 10.4 0 a5.2 5.2 0 1 0 -10.4 0zM748.73 597.92 a5.2 5.2 0 1 0 10.4 0 a5.2 5.2 0 1 0 -10.4 0zM703.7 623.92 a5.2 5.2 0 1 0 10.4 0 a5.2 5.2 0 1 0 -10.4 0zM658.66 597.92 a5.2 5.2 0 1 0 10.4 0 a5.2 5.2 0 1 0 -10.4 0zM793.77 207.92 a5.2 5.2 0 1 0 10.4 0 a5.2 5.2 0 1 0 -10.4 0zM838.8 233.92 a5.2 5.2 0 1 0 10.4 0 a5.2 5.2 0 1 0 -10.4 0zM838.8 285.92 a5.2 5.2 0 1 0 10.4 0 a5.2 5.2 0 1 0 -10.4 0zM793.77 311.92 a5.2 5.2 0 1 0 10.4 0 a5.2 5.2 0 1 0 -10.4 0zM883.84 207.92 a5.2 5.2 0 1 0 10.4 0 a5.2 5.2 0 1 0 -10.4 0zM928.87 233.92 a5.2 5.2 0 1 0 10.4 0 a5.2 5.2 0 1 0 -10.4 0zM928.87 285.92 a5.2 5.2 0 1 0 10.4 0 a5.2 5.2 0 1 0 -10.4 0zM883.84 311.92 a5.2 5.2 0 1 0 10.4 0 a5.2 5.2 0 1 0 -10.4 0zM883.84 363.92 a5.2 5.2 0 1 0 10.4 0 a5.2 5.2 0 1 0 -10.4 0zM928.87 389.92 a5.2 5.2 0 1 0 10.4 0 a5.2 5.2 0 1 0 -10.4 0zM928.87 441.92 a5.2 5.2 0 1 0 10.4 0 a5.2 5.2 0 1 0 -10.4 0zM883.84 467.92 a5.2 5.2 0 1 0 10.4 0 a5.2 5.2 0 1 0 -10.4 0zM838.8 441.92 a5.2 5.2 0 1 0 10.4 0 a5.2 5.2 0 1 0 -10.4 0zM838.8 389.92 a5.2 5.2 0 1 0 10.4 0 a5.2 5.2 0 1 0 -10.4 0zM1154.04 363.92 a5.2 5.2 0 1 0 10.4 0 a5.2 5.2 0 1 0 -10.4 0zM1199.08 389.92 a5.2 5.2 0 1 0 10.4 0 a5.2 5.2 0 1 0 -10.4 0zM1199.08 441.92 a5.2 5.2 0 1 0 10.4 0 a5.2 5.2 0 1 0 -10.4 0zM1154.04 467.92 a5.2 5.2 0 1 0 10.4 0 a5.2 5.2 0 1 0 -10.4 0zM1109.01 441.92 a5.2 5.2 0 1 0 10.4 0 a5.2 5.2 0 1 0 -10.4 0zM1109.01 389.92 a5.2 5.2 0 1 0 10.4 0 a5.2 5.2 0 1 0 -10.4 0zM1154.04 519.92 a5.2 5.2 0 1 0 10.4 0 a5.2 5.2 0 1 0 -10.4 0zM1109.01 545.92 a5.2 5.2 0 1 0 10.4 0 a5.2 5.2 0 1 0 -10.4 0zM1063.98 519.92 a5.2 5.2 0 1 0 10.4 0 a5.2 5.2 0 1 0 -10.4 0zM1063.98 467.92 a5.2 5.2 0 1 0 10.4 0 a5.2 5.2 0 1 0 -10.4 0zM1199.08 -26.08 a5.2 5.2 0 1 0 10.4 0 a5.2 5.2 0 1 0 -10.4 0zM1244.11 -0.08 a5.2 5.2 0 1 0 10.4 0 a5.2 5.2 0 1 0 -10.4 0zM1244.11 51.92 a5.2 5.2 0 1 0 10.4 0 a5.2 5.2 0 1 0 -10.4 0zM1199.08 77.92 a5.2 5.2 0 1 0 10.4 0 a5.2 5.2 0 1 0 -10.4 0zM1154.05 51.92 a5.2 5.2 0 1 0 10.4 0 a5.2 5.2 0 1 0 -10.4 0zM1154.05 -0.08 a5.2 5.2 0 1 0 10.4 0 a5.2 5.2 0 1 0 -10.4 0zM1244.11 363.92 a5.2 5.2 0 1 0 10.4 0 a5.2 5.2 0 1 0 -10.4 0zM1289.15 389.92 a5.2 5.2 0 1 0 10.4 0 a5.2 5.2 0 1 0 -10.4 0zM1289.15 441.92 a5.2 5.2 0 1 0 10.4 0 a5.2 5.2 0 1 0 -10.4 0zM1244.11 467.92 a5.2 5.2 0 1 0 10.4 0 a5.2 5.2 0 1 0 -10.4 0zM1334.18 51.92 a5.2 5.2 0 1 0 10.4 0 a5.2 5.2 0 1 0 -10.4 0zM1379.22 77.92 a5.2 5.2 0 1 0 10.4 0 a5.2 5.2 0 1 0 -10.4 0zM1379.22 129.92 a5.2 5.2 0 1 0 10.4 0 a5.2 5.2 0 1 0 -10.4 0zM1334.18 155.92 a5.2 5.2 0 1 0 10.4 0 a5.2 5.2 0 1 0 -10.4 0zM1289.15 129.92 a5.2 5.2 0 1 0 10.4 0 a5.2 5.2 0 1 0 -10.4 0zM1289.15 77.92 a5.2 5.2 0 1 0 10.4 0 a5.2 5.2 0 1 0 -10.4 0zM1424.25 51.92 a5.2 5.2 0 1 0 10.4 0 a5.2 5.2 0 1 0 -10.4 0zM1469.29 77.92 a5.2 5.2 0 1 0 10.4 0 a5.2 5.2 0 1 0 -10.4 0zM1469.29 129.92 a5.2 5.2 0 1 0 10.4 0 a5.2 5.2 0 1 0 -10.4 0zM1424.25 155.92 a5.2 5.2 0 1 0 10.4 0 a5.2 5.2 0 1 0 -10.4 0zM1424.25 519.92 a5.2 5.2 0 1 0 10.4 0 a5.2 5.2 0 1 0 -10.4 0zM1469.29 545.92 a5.2 5.2 0 1 0 10.4 0 a5.2 5.2 0 1 0 -10.4 0zM1469.29 597.92 a5.2 5.2 0 1 0 10.4 0 a5.2 5.2 0 1 0 -10.4 0zM1424.25 623.92 a5.2 5.2 0 1 0 10.4 0 a5.2 5.2 0 1 0 -10.4 0zM1379.22 597.92 a5.2 5.2 0 1 0 10.4 0 a5.2 5.2 0 1 0 -10.4 0zM1379.22 545.92 a5.2 5.2 0 1 0 10.4 0 a5.2 5.2 0 1 0 -10.4 0z" fill="rgba(19, 63, 106, 1)"></path><path d="M144.1 546.68L197.8 577.68L197.8 639.68L144.1 670.68L90.41 639.68L90.41 577.68zM305.19 81.68L358.88 112.68L358.88 174.68L305.19 205.68L251.49 174.68L251.49 112.68zM251.49 360.68L305.19 391.68L305.19 453.68L251.49 484.68L197.8 453.68L197.8 391.68zM412.58 81.68L466.27 112.68L466.27 174.68L412.58 205.68L358.88 174.68L358.88 112.68zM466.27 -11.32L519.97 19.68L519.97 81.68L466.27 112.68L412.58 81.68L412.58 19.68zM519.97 267.68L573.66 298.68L573.66 360.68L519.97 391.68L466.27 360.68L466.27 298.68zM681.05 546.68L734.75 577.68L734.75 639.68L681.05 670.68L627.36 639.68L627.36 577.68zM788.44 174.68L842.14 205.68L842.14 267.68L788.44 298.68L734.75 267.68L734.75 205.68zM842.14 453.68L895.83 484.68L895.83 546.68L842.14 577.68L788.44 546.68L788.44 484.68zM788.44 546.68L842.14 577.68L842.14 639.68L788.44 670.68L734.75 639.68L734.75 577.68zM949.53 81.68L1003.22 112.68L1003.22 174.68L949.53 205.68L895.83 174.68L895.83 112.68zM1056.92 267.68L1110.61 298.68L1110.61 360.68L1056.92 391.68L1003.22 360.68L1003.22 298.68zM1056.92 453.68L1110.61 484.68L1110.61 546.68L1056.92 577.68L1003.22 546.68L1003.22 484.68zM1003.22 546.68L1056.92 577.68L1056.92 639.68L1003.22 670.68L949.53 639.68L949.53 577.68zM1110.61 -11.32L1164.31 19.68L1164.31 81.68L1110.61 112.68L1056.92 81.68L1056.92 19.68zM1271.7 453.68L1325.39 484.68L1325.39 546.68L1271.7 577.68L1218 546.68L1218 484.68zM1325.39 546.68L1379.09 577.68L1379.09 639.68L1325.39 670.68L1271.7 639.68L1271.7 577.68zM1432.78 360.68L1486.48 391.68L1486.48 453.68L1432.78 484.68L1379.09 453.68L1379.09 391.68z" stroke="rgba(180, 179, 163, 0.93)" stroke-width="2"></path></g><defs><mask id="SvgjsMask1076"><rect width="1440" height="560" fill="#ffffff"></rect></mask></defs></svg>